<?xml version="1.0" encoding="UTF-8" standalone="no" ?>
<!DOCTYPE svg PUBLIC "-//W3C//DTD SVG 1.1//EN" "http://www.w3.org/Graphics/SVG/1.1/DTD/svg11.dtd">
<svg xmlns="http://www.w3.org/2000/svg" xmlns:xlink="http://www.w3.org/1999/xlink" version="1.1" width="380" height="90" viewBox="0 0 380 90" xml:space="preserve">
<desc>Created with Fabric.js 4.6.0</desc>
<defs>
</defs>
<g transform="matrix(1 0 0 1 43.72 45)" id="q1MpsKAek695GWfKxawRQ"  >
<path style="stroke: rgb(247,239,121); stroke-width: 0; stroke-dasharray: none; stroke-linecap: butt; stroke-dashoffset: 0; stroke-linejoin: miter; stroke-miterlimit: 4; fill: rgb(240,112,50); fill-rule: nonzero; opacity: 1;" vector-effect="non-scaling-stroke"  transform=" translate(-34.57, -34.57)" d="M 34.56916 0 L 44.82442999999999 23.37735 L 69.13828 26.40835 L 51.16233 43.88758 L 55.933859999999996 69.13827 L 34.56914 56.56380000000001 L 13.204419999999999 69.13827 L 17.975949999999997 43.88758000000001 L -3.552713678800501e-15 26.408350000000006 L 24.313849999999995 23.377350000000007 z" stroke-linecap="round" />
</g>
<g transform="matrix(1 0 0 1 116.86 45)" id="N7NtstuZN7w4jilFfGEG_"  >
<path style="stroke: rgb(247,239,121); stroke-width: 0; stroke-dasharray: none; stroke-linecap: butt; stroke-dashoffset: 0; stroke-linejoin: miter; stroke-miterlimit: 4; fill: rgb(240,112,50); fill-rule: nonzero; opacity: 1;" vector-effect="non-scaling-stroke"  transform=" translate(-34.57, -34.57)" d="M 34.56916 0 L 44.82442999999999 23.37735 L 69.13828 26.40835 L 51.16233 43.88758 L 55.933859999999996 69.13827 L 34.56914 56.56380000000001 L 13.204419999999999 69.13827 L 17.975949999999997 43.88758000000001 L -3.552713678800501e-15 26.408350000000006 L 24.313849999999995 23.377350000000007 z" stroke-linecap="round" />
</g>
<g transform="matrix(1 0 0 1 190 45)" id="8yUZhoa-eRCSYdquHU-Zs"  >
<path style="stroke: rgb(247,239,121); stroke-width: 0; stroke-dasharray: none; stroke-linecap: butt; stroke-dashoffset: 0; stroke-linejoin: miter; stroke-miterlimit: 4; fill: rgb(240,112,50); fill-rule: nonzero; opacity: 1;" vector-effect="non-scaling-stroke"  transform=" translate(-34.57, -34.57)" d="M 34.56916 0 L 44.82442999999999 23.37735 L 69.13828 26.40835 L 51.16233 43.88758 L 55.933859999999996 69.13827 L 34.56914 56.56380000000001 L 13.204419999999999 69.13827 L 17.975949999999997 43.88758000000001 L -3.552713678800501e-15 26.408350000000006 L 24.313849999999995 23.377350000000007 z" stroke-linecap="round" />
</g>
<g transform="matrix(1 0 0 1 263.14 45)" id="G0vpDN2MNLrJs3XPWB0tL"  >
<path style="stroke: rgb(247,239,121); stroke-width: 0; stroke-dasharray: none; stroke-linecap: butt; stroke-dashoffset: 0; stroke-linejoin: miter; stroke-miterlimit: 4; fill: rgb(240,112,50); fill-rule: nonzero; opacity: 1;" vector-effect="non-scaling-stroke"  transform=" translate(-34.57, -34.57)" d="M 34.56916 0 L 44.82442999999999 23.37735 L 69.13828 26.40835 L 51.16233 43.88758 L 55.933859999999996 69.13827 L 34.56914 56.56380000000001 L 13.204419999999999 69.13827 L 17.975949999999997 43.88758000000001 L -3.552713678800501e-15 26.408350000000006 L 24.313849999999995 23.377350000000007 z" stroke-linecap="round" />
</g>
<g transform="matrix(1 0 0 1 336.28 45)" id="bzWsyEBtSCfccK-lrxHA8"  >
<path style="stroke: rgb(247,239,121); stroke-width: 0; stroke-dasharray: none; stroke-linecap: butt; stroke-dashoffset: 0; stroke-linejoin: miter; stroke-miterlimit: 4; fill: rgb(240,112,50); fill-rule: nonzero; opacity: 1;" vector-effect="non-scaling-stroke"  transform=" translate(-34.57, -34.57)" d="M 34.56916 0 L 44.82442999999999 23.37735 L 69.13828 26.40835 L 51.16233 43.88758 L 55.933859999999996 69.13827 L 34.56914 56.56380000000001 L 13.204419999999999 69.13827 L 17.975949999999997 43.88758000000001 L -3.552713678800501e-15 26.408350000000006 L 24.313849999999995 23.377350000000007 z" stroke-linecap="round" />
</g>
</svg>